<svg xmlns="http://www.w3.org/2000/svg" width="103" height="103" viewBox="0 0 103 103">
  <g id="Groupe_34" data-name="Groupe 34" transform="translate(-1116 -1985)">
    <circle id="Ellipse_6" data-name="Ellipse 6" cx="51.5" cy="51.5" r="51.5" transform="translate(1116 1985)" fill="#fff"/>
    <g id="eye-line" transform="translate(1132.833 1979.865)">
      <path id="Tracé_156" data-name="Tracé 156" d="M59.346,55.865c-5.3-9.8-14.6-15.73-24.885-15.73s-19.6,5.93-24.853,15.73l-.44.739.409.755c5.3,9.8,14.6,15.73,24.885,15.73s19.6-5.852,24.885-15.73l.409-.755Zm-24.885,14c-8.856,0-16.988-4.939-21.707-13.26,4.719-8.321,12.851-13.26,21.707-13.26S51.355,48.3,56.153,56.6C51.355,64.925,43.3,69.865,34.461,69.865Z" fill="#1d04bf"/>
      <path id="Tracé_157" data-name="Tracé 157" d="M70.835,59.535A10.791,10.791,0,1,0,78.5,62.651,10.791,10.791,0,0,0,70.835,59.535Zm0,18.436A7.66,7.66,0,1,1,76.3,75.739,7.645,7.645,0,0,1,70.835,77.971Z" transform="translate(-35.917 -13.675)" fill="#1d04bf"/>
    </g>
  </g>
</svg>
