<svg xmlns="http://www.w3.org/2000/svg" width="103" height="103" viewBox="0 0 103 103">
  <g id="Groupe_77" data-name="Groupe 77" transform="translate(-1530 -1683)">
    <circle id="Ellipse_4" data-name="Ellipse 4" cx="51.5" cy="51.5" r="51.5" transform="translate(1530 1683)" fill="#fff"/>
    <path id="Tracé_149" data-name="Tracé 149" d="M123.6,43.677c-2.516.188-13.169,2.852-15.847,3.541A23.1,23.1,0,0,1,104.62,45.4a8.216,8.216,0,0,0-3.8-1.712A14.474,14.474,0,0,0,85.29,59.657a97.543,97.543,0,0,0,13.758,39.59,2.477,2.477,0,0,0,4.508-.676l1.039-4.025a24.726,24.726,0,0,1,6.1-10.926l.347-.361a1.067,1.067,0,0,1,1.506-.032l.419.4a24.685,24.685,0,0,1,6.72,11.236l1.056,3.807a2.443,2.443,0,0,0,2.039,1.789,2.578,2.578,0,0,0,.361.026,2.44,2.44,0,0,0,2.1-1.181,97.556,97.556,0,0,0,13.8-39.662A14.448,14.448,0,0,0,123.6,43.677Zm12.855,15.684a94.9,94.9,0,0,1-13.29,38.364l-.986-3.554a27.275,27.275,0,0,0-7.425-12.415l-.419-.4a3.662,3.662,0,0,0-5.165.109l-.347.361A27.321,27.321,0,0,0,102.087,93.9l-.971,3.764a94.887,94.887,0,0,1-13.25-38.288,11.883,11.883,0,0,1,12.752-13.107,6.581,6.581,0,0,1,2.574,1.291c2.87,1.9,7.208,4.762,17.089,3.527a1.3,1.3,0,1,0-.321-2.57,28.94,28.94,0,0,1-7.157.109c4.227-1.031,9.519-2.254,10.989-2.364a11.858,11.858,0,0,1,12.662,13.1ZM126.62,32.638a1.3,1.3,0,0,0-1.3,1.3v1.619h-1.457a1.3,1.3,0,1,0,0,2.59h1.457V39.6a1.3,1.3,0,1,0,2.59,0V38.142h1.619a1.3,1.3,0,1,0,0-2.59h-1.619V33.933A1.3,1.3,0,0,0,126.62,32.638Zm12.628-3.724H137.63V27.3a1.3,1.3,0,0,0-2.59,0v1.619h-1.457a1.3,1.3,0,0,0,0,2.59h1.457v1.457a1.3,1.3,0,1,0,2.59,0V31.5h1.619a1.3,1.3,0,0,0,0-2.59Zm0,11.495H137.63V38.79a1.3,1.3,0,1,0-2.59,0v1.619h-1.457a1.3,1.3,0,0,0,0,2.59h1.457v1.457a1.3,1.3,0,1,0,2.59,0V43h1.619a1.3,1.3,0,1,0,0-2.59Z" transform="translate(1468.021 1672.575)" fill="#1d04bf"/>
  </g>
</svg>
