<svg xmlns="http://www.w3.org/2000/svg" width="103" height="103" viewBox="0 0 103 103">
  <g id="Groupe_80" data-name="Groupe 80" transform="translate(-1116 -1683)">
    <circle id="Ellipse_5" data-name="Ellipse 5" cx="51.5" cy="51.5" r="51.5" transform="translate(1116 1683)" fill="#fff"/>
    <g id="Groupe_33" data-name="Groupe 33" transform="translate(1131.244 1700.909)">
      <path id="Tracé_152" data-name="Tracé 152" d="M41.148,37.594H41a1.175,1.175,0,0,1-.893-.646,8.847,8.847,0,0,0-2.15-2.832l-7.7-7.837-3.172-3.02a1.175,1.175,0,0,1-.188-1.469A21.149,21.149,0,0,1,44.673,11.78a19.739,19.739,0,0,1,13.759,5.358,1.175,1.175,0,0,1,.07,1.633L42.053,37.194a1.175,1.175,0,0,1-.9.4ZM29.4,22.225l2.491,2.35,7.637,7.79a9.835,9.835,0,0,1,1.8,2.044l14.64-16.332A17.624,17.624,0,0,0,44.673,14.13a18.717,18.717,0,0,0-15.274,8.1Z" transform="translate(4.192)" fill="#1d04bf"/>
      <path id="Tracé_153" data-name="Tracé 153" d="M42.919,52.674a19.434,19.434,0,0,1-5.358-.811,1.089,1.089,0,0,1-.517-1.809A12.748,12.748,0,0,0,38.43,36.26a1.175,1.175,0,0,1,.176-1.328L55.056,16.5a1.175,1.175,0,0,1,1.633-.106,20.327,20.327,0,0,1,7.12,15.521,20.843,20.843,0,0,1-20.89,20.761Zm-3.055-2.62a15.7,15.7,0,0,0,3.055.317A18.494,18.494,0,0,0,61.4,31.854a18.012,18.012,0,0,0-5.44-12.924L40.816,35.861a15.192,15.192,0,0,1-.952,14.193Z" transform="translate(5.947 0.758)" fill="#1d04bf"/>
      <path id="Tracé_154" data-name="Tracé 154" d="M31.115,56.178a14.346,14.346,0,0,1-10.4-4.347l-7.755-7.578a1.175,1.175,0,0,1,0-1.668l19.8-19.821a1.175,1.175,0,0,1,.834-.352h0a1.175,1.175,0,0,1,.834.352l7.614,7.766A11.1,11.1,0,0,1,44.7,34.054a15.145,15.145,0,0,1-1.668,16.332.541.541,0,0,1-.082.082c-.117.129-.247.282-.364.435s-.364.446-.54.634l-.317.305a15.145,15.145,0,0,1-10.61,4.336Zm-15.7-12.8,6.956,6.744a12.055,12.055,0,0,0,8.742,3.666,12.82,12.82,0,0,0,8.978-3.667l.292-.292a2.738,2.738,0,0,0,.364-.435c.176-.2.341-.411.505-.587a12.736,12.736,0,0,0,1.351-13.747,8.706,8.706,0,0,0-2.15-2.855l-6.862-7.05Zm26.671,6.251Z" transform="translate(1.725 1.86)" fill="#1d04bf"/>
      <path id="Tracé_155" data-name="Tracé 155" d="M15.509,46.275h0a1.175,1.175,0,0,1-.834-.352L7.214,38.3a14.6,14.6,0,0,1,0-21.008L7.507,17a14.887,14.887,0,0,1,21.008,0l4.418,4.418,3.184,3.031a1.234,1.234,0,0,1,.364.834,1.175,1.175,0,0,1-.352.846L16.343,45.958A1.175,1.175,0,0,1,15.509,46.275ZM18.023,15.01a12.419,12.419,0,0,0-8.836,3.654l-.27.27a12.243,12.243,0,0,0,0,17.624l6.65,6.791L33.591,25.314l-2.35-2.221-4.43-4.43a12.454,12.454,0,0,0-8.789-3.654Z" transform="translate(0 0.154)" fill="#1d04bf"/>
    </g>
  </g>
</svg>
